<?xml version="1.0" encoding="UTF-8" standalone="no"?>
<svg
   xmlns:dc="http://purl.org/dc/elements/1.1/"
   xmlns:cc="http://creativecommons.org/ns#"
   xmlns:rdf="http://www.w3.org/1999/02/22-rdf-syntax-ns#"
   xmlns:svg="http://www.w3.org/2000/svg"
   xmlns="http://www.w3.org/2000/svg"
   xmlns:xlink="http://www.w3.org/1999/xlink"
   xmlns:sodipodi="http://sodipodi.sourceforge.net/DTD/sodipodi-0.dtd"
   xmlns:inkscape="http://www.inkscape.org/namespaces/inkscape"
   width="210mm"
   height="297mm"
   viewBox="0 0 210 297"
   version="1.1"
   id="svg1123"
   inkscape:version="1.0.2 (e86c8708, 2021-01-15)"
   sodipodi:docname="grid2.svg">
  <defs
     id="defs1117">
    <linearGradient
       inkscape:collect="always"
       xlink:href="#linearGradient714"
       id="linearGradient707"
       gradientUnits="userSpaceOnUse"
       gradientTransform="matrix(0,0.60100832,1.7746167,0,62.854844,40.872248)"
       x1="79.375"
       y1="79.940445"
       x2="79.375"
       y2="-0.717834" />
    <linearGradient
       id="linearGradient714"
       inkscape:collect="always">
      <stop
         style="stop-color:#0a86ff;stop-opacity:1;"
         offset="0"
         id="stop713" />
      <stop
         style="stop-color:#ff0076;stop-opacity:1;"
         offset="1"
         id="stop714" />
    </linearGradient>
    <linearGradient
       inkscape:collect="always"
       xlink:href="#linearGradient717"
       id="linearGradient710"
       gradientUnits="userSpaceOnUse"
       gradientTransform="matrix(-0.60110246,0,0,1.7743387,157.00598,42.145928)"
       x1="79.375"
       y1="79.940445"
       x2="79.375"
       y2="-0.717834" />
    <linearGradient
       id="linearGradient717"
       inkscape:collect="always">
      <stop
         style="stop-color:#ff4100;stop-opacity:1;"
         offset="0"
         id="stop716" />
      <stop
         style="stop-color:#32cbc3;stop-opacity:1;"
         offset="1"
         id="stop717" />
    </linearGradient>
    <linearGradient
       inkscape:collect="always"
       xlink:href="#linearGradient714"
       id="linearGradient716"
       gradientUnits="userSpaceOnUse"
       gradientTransform="matrix(0,-0.60100832,-1.7746167,0,203.44461,183.98735)"
       x1="79.375"
       y1="79.940445"
       x2="79.375"
       y2="-0.717834" />
    <linearGradient
       inkscape:collect="always"
       xlink:href="#linearGradient717"
       id="linearGradient718"
       gradientUnits="userSpaceOnUse"
       gradientTransform="matrix(0.60110246,0,0,-1.7743387,109.29347,182.71368)"
       x1="79.375"
       y1="79.940445"
       x2="79.375"
       y2="-0.717834" />
  </defs>
  <sodipodi:namedview
     id="base"
     pagecolor="#ffffff"
     bordercolor="#666666"
     borderopacity="1.0"
     inkscape:pageopacity="0.0"
     inkscape:pageshadow="2"
     inkscape:zoom="0.78162019"
     inkscape:cx="306.73333"
     inkscape:cy="490.8114"
     inkscape:document-units="mm"
     inkscape:current-layer="layer4"
     inkscape:document-rotation="0"
     showgrid="false"
     inkscape:window-width="1440"
     inkscape:window-height="847"
     inkscape:window-x="0"
     inkscape:window-y="25"
     inkscape:window-maximized="0" />
  <metadata
     id="metadata1120">
    <rdf:RDF>
      <cc:Work
         rdf:about="">
        <dc:format>image/svg+xml</dc:format>
        <dc:type
           rdf:resource="http://purl.org/dc/dcmitype/StillImage" />
        <dc:title></dc:title>
      </cc:Work>
    </rdf:RDF>
  </metadata>
  <g
     inkscape:groupmode="layer"
     id="layer4"
     inkscape:label="background">
    <rect
       style="display:inline;fill:#ffffff;stroke-width:2.42686;stroke-linecap:round;stroke-linejoin:round;stroke-dashoffset:435.402;stop-color:#000000"
       id="rect1948"
       width="152.39999"
       height="152.39999"
       x="56.94973"
       y="36.229809"
       inkscape:export-filename="/Users/rmullinix/Desktop/grid.png"
       inkscape:export-xdpi="96"
       inkscape:export-ydpi="96" />
  </g>
  <g
     inkscape:groupmode="layer"
     id="layer3"
     inkscape:label="grid"
     style="display:none">
    <path
       style="display:inline;fill:#cccccc;fill-opacity:0.330144;stroke:#000000;stroke-width:0.159029;stroke-dasharray:none;stroke-opacity:1"
       d="M 77.485132,40.872247 V 183.98735"
       id="path39"
       sodipodi:nodetypes="cc" />
    <path
       style="display:inline;fill:#cccccc;fill-opacity:0.330144;stroke:#000000;stroke-width:0.159029;stroke-dasharray:none;stroke-opacity:1"
       d="M 93.389302,40.872247 V 183.98735"
       id="path41"
       sodipodi:nodetypes="cc" />
    <path
       style="display:inline;fill:#cccccc;fill-opacity:0.330144;stroke:#000000;stroke-width:0.159029;stroke-dasharray:none;stroke-opacity:1"
       d="M 125.19764,40.872247 V 183.98735"
       id="path42"
       sodipodi:nodetypes="cc" />
    <path
       style="display:inline;fill:#cccccc;fill-opacity:0.330144;stroke:#000000;stroke-width:0.159029;stroke-dasharray:none;stroke-opacity:1"
       d="M 141.10182,40.872247 V 183.98735"
       id="path43"
       sodipodi:nodetypes="cc" />
    <path
       style="display:inline;fill:#cccccc;fill-opacity:0.330144;stroke:#000000;stroke-width:0.159029;stroke-dasharray:none;stroke-opacity:1"
       d="M 172.91015,40.872247 V 183.98735"
       id="path44"
       sodipodi:nodetypes="cc" />
    <path
       style="display:inline;fill:#cccccc;fill-opacity:0.330144;stroke:#000000;stroke-width:0.159029;stroke-dasharray:none;stroke-opacity:1"
       d="M 188.81432,40.872247 V 183.98735"
       id="path45"
       sodipodi:nodetypes="cc" />
    <path
       style="display:inline;fill:#cccccc;fill-opacity:0.330144;stroke:#000000;stroke-width:0.159029;stroke-dasharray:none;stroke-opacity:1"
       d="M 61.580963,72.675606 H 204.71849"
       id="path46"
       sodipodi:nodetypes="cc" />
    <path
       style="display:inline;fill:#cccccc;fill-opacity:0.330144;stroke:#000000;stroke-width:0.159029;stroke-dasharray:none;stroke-opacity:1"
       d="M 61.580963,56.773923 H 204.71849"
       id="path47"
       sodipodi:nodetypes="cc" />
    <path
       style="display:inline;fill:#cccccc;fill-opacity:0.330144;stroke:#000000;stroke-width:0.159029;stroke-dasharray:none;stroke-opacity:1"
       d="M 61.580963,104.47896 H 204.71849"
       id="path48"
       sodipodi:nodetypes="cc" />
    <path
       style="display:inline;fill:#cccccc;fill-opacity:0.330144;stroke:#000000;stroke-width:0.159029;stroke-dasharray:none;stroke-opacity:1"
       d="M 61.580963,152.18399 H 204.71849"
       id="path50"
       sodipodi:nodetypes="cc" />
    <path
       style="display:inline;fill:#cccccc;fill-opacity:0.330144;stroke:#000000;stroke-width:0.159029;stroke-dasharray:none;stroke-opacity:1"
       d="M 61.580963,168.08568 H 204.71849"
       id="path51"
       sodipodi:nodetypes="cc" />
    <path
       style="opacity:0.997481;fill:#0080ff;fill-opacity:0.454902;stroke:url(#linearGradient707);stroke-width:0.795148;stroke-linecap:round;stroke-dasharray:none;stroke-opacity:1"
       d="M 204.7185,88.577282 H 61.580963"
       id="path706"
       sodipodi:nodetypes="cc" />
    <path
       style="opacity:0.997481;fill:#0080ff;fill-opacity:0.454902;stroke:url(#linearGradient710);stroke-width:0.795148;stroke-linecap:round;stroke-dasharray:none;stroke-opacity:1"
       d="M 109.29347,183.98737 V 40.872247"
       id="path709"
       sodipodi:nodetypes="cc" />
    <path
       style="opacity:0.997481;fill:#0080ff;fill-opacity:0.454902;stroke:url(#linearGradient716);stroke-width:0.795148;stroke-linecap:round;stroke-dasharray:none;stroke-opacity:1"
       d="M 61.580951,136.28232 H 204.71849"
       id="path715"
       sodipodi:nodetypes="cc" />
    <path
       style="opacity:0.997481;fill:#0080ff;fill-opacity:0.454902;stroke:url(#linearGradient718);stroke-width:0.795148;stroke-linecap:round;stroke-dasharray:none;stroke-opacity:1"
       d="M 157.00598,40.872247 V 183.98737"
       id="path717"
       sodipodi:nodetypes="cc" />
    <path
       style="display:inline;fill:#cccccc;fill-opacity:0.330144;stroke:#000000;stroke-width:0.159029;stroke-dasharray:none;stroke-opacity:1"
       d="M 61.580963,120.38065 H 204.71849"
       id="path49"
       sodipodi:nodetypes="cc" />
  </g>
  <g
     inkscape:label="Layer 1"
     inkscape:groupmode="layer"
     id="layer1"
     style="display:inline">
    <path
       id="path333"
       style="display:inline;fill:#4d4d4d;fill-opacity:1;stroke-width:0.47632"
       d="m 77.800753,53.428459 a 0.59949522,2.5124267 49.88104 0 0 -2.18869,1.299156 0.59949522,2.5124267 49.88104 0 0 -1.42609,2.021252 0.59949522,2.5124267 49.88104 0 0 2.37662,-1.255985 0.59949522,2.5124267 49.88104 0 0 1.42609,-2.021252 0.59949522,2.5124267 49.88104 0 0 -0.18793,-0.04317 z m 0.15438,1.383633 a 0.41690594,1.528647 44.039468 0 0 -1.24841,0.84664 0.41690594,1.528647 44.039468 0 0 -0.76291,1.388602 0.41690594,1.528647 44.039468 0 0 1.36241,-0.80906 0.41690594,1.528647 44.039468 0 0 0.76291,-1.388602 0.41690594,1.528647 44.039468 0 0 -0.114,-0.03758 z m 0.98407,1.126472 a 0.37099284,1.3993311 56.819984 0 0 -1.35061,0.606252 0.37099284,1.3993311 56.819984 0 0 -0.80298,1.016527 0.37099284,1.3993311 56.819984 0 0 1.47673,-0.576436 0.37099284,1.3993311 56.819984 0 0 0.80297,-1.016527 0.37099284,1.3993311 56.819984 0 0 -0.12611,-0.02982 z m 0.29603,1.042616 a 0.28027227,0.86167218 52.099782 0 0 -0.81011,0.396921 0.28027227,0.86167218 52.099782 0 0 -0.43427,0.722098 0.28027227,0.86167218 52.099782 0 0 0.89151,-0.370211 0.28027227,0.86167218 52.099782 0 0 0.43457,-0.721787 0.28027227,0.86167218 52.099782 0 0 -0.0817,-0.02703 z m 6.11193,3.739069 c -0.42296,6.61e-4 -1.08566,0.121476 -1.60596,0.282938 -0.19821,0.06152 -0.37596,0.12886 -0.51161,0.197839 -0.92383,0.469639 -1.68166,1.482207 -1.84698,2.467556 -0.16569,0.987373 0.18772,2.055477 0.94834,2.865718 0.63239,0.673637 1.95161,1.245513 2.80498,1.215609 0.44672,-0.01562 1.20403,-0.238882 1.56588,-0.461211 1.02627,-0.630588 1.82867,-2.00072 1.86905,-3.191206 0.0599,-1.764861 -1.22752,-3.183257 -3.05814,-3.36979 -0.0495,-0.005 -0.10514,-0.0076 -0.16556,-0.0075 z m 1.61899,2.171884 c 0.15689,-0.0061 0.30373,0.02641 0.41531,0.101869 0.50567,0.342006 0.36514,1.347191 -0.26963,1.928389 -0.25455,0.233089 -0.76124,0.442192 -0.99183,0.409344 -0.26517,-0.03776 -0.53901,-0.287633 -0.61287,-0.559042 -0.1108,-0.407129 0.21789,-1.107177 0.74489,-1.58582 0.12304,-0.111761 0.27243,-0.19393 0.42617,-0.242874 0.0961,-0.03058 0.19383,-0.0482 0.28796,-0.05187 z m -2.68818,1.437983 c 0.0929,-0.003 0.20009,0.05425 0.34014,0.213678 0.24243,0.275969 0.2747,0.345847 0.26311,0.564013 -0.008,0.13693 -0.0674,0.336955 -0.13358,0.444751 -0.38815,0.631679 -1.75206,0.39427 -2.27752,-0.39661 -0.39595,-0.595935 0.54619,-0.164863 1.05769,-0.310581 0.36764,-0.104725 0.51271,-0.507421 0.75016,-0.515251 z m 1.66465,2.009451 c 0.004,-1.11e-4 0.006,2.15e-4 0.008,6.01e-4 h 3.1e-4 l 3.1e-4,3.1e-4 h 3.2e-4 3e-4 3.1e-4 v 3.11e-4 l 3.2e-4,3.1e-4 v 3.11e-4 3.11e-4 h -3.2e-4 c -0.008,0.01078 -0.13507,0.05124 -0.34852,0.109324 -0.21343,0.05807 -0.34258,0.08767 -0.35536,0.08261 h -3.1e-4 v -3.11e-4 h -6e-4 v -3.1e-4 -3.11e-4 -3.1e-4 -3.1e-4 l 3.1e-4,-3.11e-4 3.1e-4,-3.1e-4 c 0.004,-0.0044 0.025,-0.01404 0.0634,-0.02826 v 3.1e-4 c 0.15316,-0.05687 0.41008,-0.126723 0.57094,-0.155289 0.0301,-0.0054 0.0503,-0.0083 0.0609,-0.0087 z m 0.009,0.0012 -3.1e-4,-3.11e-4 v 3.11e-4 z" />
    <path
       id="path321"
       style="display:inline;fill:#4d4d4d;fill-opacity:1;stroke-width:0.47632"
       d="m 69.855921,109.13793 c -0.06895,-0.11218 -0.130939,-0.19655 -0.179284,-0.2379 -0.07536,-0.0648 -0.118915,-0.0981 -0.165792,-0.10443 -0.04692,-0.006 -0.09702,0.0142 -0.185702,0.057 -0.528612,0.25537 -1.382969,1.4198 -1.810333,2.46745 -0.436754,1.07072 -0.517044,2.05468 -0.285213,3.49385 l 0.100962,0.62749 1.195691,0.15655 c 1.401079,0.18326 1.279219,0.23532 1.698506,-0.72538 0.334153,-0.76562 0.565981,-1.76207 0.548829,-2.35942 -0.01681,-0.58395 -0.157757,-1.48698 -0.314289,-2.01332 -0.130105,-0.43744 -0.396813,-1.02529 -0.603395,-1.36191 z m -0.232136,2.01997 c 0.09047,0.16088 0.125054,0.36635 0.09144,0.58533 -0.03918,0.2535 -0.08986,0.33632 -0.291237,0.47384 -0.302521,0.20665 -0.581411,0.181 -0.792426,-0.0729 -0.33464,-0.40262 -0.143106,-1.0756 0.351805,-1.23685 0.128775,-0.042 0.210379,-0.0565 0.28473,-0.0419 0.04451,0.009 0.08659,0.0279 0.134397,0.0581 0.09213,0.0575 0.166887,0.13791 0.221257,0.2344 z m 1.92632,3.43501 c -0.04884,-0.0731 -0.107573,-0.15233 -0.177915,-0.24209 -0.242701,-0.3108 -0.389405,-0.46021 -0.476631,-0.46699 -0.05966,-0.005 -0.09157,0.0574 -0.107703,0.18079 -0.02136,0.16351 -0.247966,0.71544 -0.56777,1.3834 -0.0211,0.0443 0.129484,0.19988 0.335815,0.34746 0.205935,0.14683 0.467353,0.37118 0.581086,0.4981 0.258452,0.28842 0.373994,0.28726 0.524665,-0.005 0.163455,-0.31693 0.204152,-0.6538 0.133147,-1.0974 -0.03494,-0.21837 -0.09725,-0.37967 -0.244694,-0.59832 z m -2.087808,1.5572 -0.315895,-0.091 c -0.143302,-0.041 -0.543014,-0.0921 -0.91474,-0.12687 -0.371721,-0.0347 -0.715657,-0.0528 -0.747728,-0.028 -0.05025,0.0387 0.07903,0.86631 0.192418,1.23197 0.06243,0.2012 0.195085,0.47928 0.294966,0.61787 0.09997,0.13854 0.228916,0.258 0.286327,0.26555 0.170357,0.0223 0.73199,-0.52094 0.935941,-0.90524 0.104149,-0.19622 0.207265,-0.49362 0.229067,-0.66071 z m -2.696543,-2.71948 c -0.0037,-0.005 -0.007,-0.009 -0.01141,-0.01 -0.0034,-0.002 -0.0078,-0.003 -0.01298,-0.003 -0.146076,-0.0173 -0.848822,0.50651 -1.045379,0.78526 -0.210385,0.29837 -0.338395,1.01442 -0.243613,1.3624 0.06903,0.25332 0.111116,0.25632 0.473499,0.0349 0.163083,-0.0997 0.469177,-0.23308 0.680153,-0.29638 0.210967,-0.0633 0.38917,-0.15802 0.396049,-0.21065 0.0069,-0.0526 -0.0187,-0.23788 -0.05691,-0.41183 -0.03822,-0.17394 -0.0812,-0.52098 -0.09553,-0.77122 -0.01299,-0.22675 -0.04969,-0.42881 -0.08503,-0.4786 z m 1.394219,6.43371 c -0.10504,-0.17262 -0.283671,-0.30067 -0.504079,-0.31222 -0.432577,-0.0227 -0.733478,0.26794 -0.70927,0.68523 0.0347,0.59791 0.798724,0.83235 1.182653,0.3629 0.17822,-0.21793 0.165565,-0.51386 0.03069,-0.73591 z m -1.000583,2.11037 c 0.112817,-0.28342 -0.362292,-0.34737 -0.65477,-0.2971 -0.32607,0.0562 -0.553065,0.32409 -0.532099,0.62814 0.02392,0.34663 0.193815,0.5521 0.516003,0.62379 0.322785,0.0719 0.543639,-0.0307 0.720349,-0.33444 0.128651,-0.22109 -0.164579,-0.33122 -0.04942,-0.62054 z m 0.916668,1.7075 c -0.163709,-0.25739 -0.362725,-0.34745 -0.655156,-0.29729 -0.326059,0.0562 -0.553166,0.32452 -0.532188,0.62857 0.02392,0.34664 0.193647,0.55184 0.515831,0.62354 0.322781,0.0719 0.544331,-0.0308 0.721051,-0.33452 0.128646,-0.22109 0.117676,-0.35779 -0.04943,-0.62053 z m -2.261759,-3.30156 c -0.01047,-0.0176 -0.02186,-0.0348 -0.03396,-0.0516 -0.08991,-0.1215 -0.231423,-0.21683 -0.418795,-0.25862 -0.382569,-0.0851 -0.680855,0.095 -0.762096,0.46041 -0.129876,0.58395 0.469758,1.00478 0.97449,0.68377 0.331512,-0.21084 0.396752,-0.56986 0.240629,-0.83408 z m -0.956371,2.09772 c -0.07869,-0.11992 -0.197453,-0.2173 -0.347228,-0.26987 -0.420127,-0.1476 -0.863105,0.18565 -0.832766,0.62648 0.02368,0.34407 0.194266,0.54948 0.515715,0.62104 0.368207,0.082 0.620492,-0.0688 0.737451,-0.44068 0.0592,-0.18821 0.0282,-0.38254 -0.07301,-0.53668 z"
       sodipodi:nodetypes="ccccscccssscccccssccccscccccsssssccsccccscccccsccscsscccssscssscsssccsssccccccsccscsssss" />
    <path
       id="path877"
       style="display:inline;fill:#4d4d4d;fill-opacity:1;stroke-width:0.47632"
       d="m 180.7146,156.51193 c -0.44673,0.0156 -1.20404,0.23888 -1.56588,0.4612 -1.02627,0.6306 -1.82867,2.00042 -1.86905,3.1909 -0.0599,1.76486 1.22751,3.18357 3.05813,3.3701 0.39616,0.0404 1.1772,-0.0913 1.77183,-0.27579 0.19821,-0.0616 0.37565,-0.12855 0.51129,-0.19753 0.92383,-0.46964 1.68167,-1.48221 1.84699,-2.46755 0.16568,-0.98739 -0.18772,-2.05548 -0.94834,-2.86572 -0.63239,-0.67364 -1.9516,-1.24552 -2.80497,-1.21561 z m -0.11183,1.21592 h 3.1e-4 l 3.1e-4,3.1e-4 3.1e-4,3e-4 v 3.2e-4 3.1e-4 3.1e-4 3.1e-4 h -3.1e-4 l -3.1e-4,3.1e-4 c -0.004,0.004 -0.025,0.014 -0.0634,0.0283 -0.15316,0.0568 -0.41008,0.12672 -0.57094,0.15529 -0.0402,0.008 -0.0624,0.01 -0.0683,0.009 l -3.1e-4,-3.1e-4 h -3.1e-4 -3.1e-4 -3.2e-4 v -3.1e-4 h -3e-4 v -3.1e-4 -3.1e-4 l -3.1e-4,-3.1e-4 v -3.1e-4 h 3.1e-4 c 0.008,-0.0108 0.13508,-0.0513 0.34852,-0.10932 0.21343,-0.0581 0.34258,-0.0877 0.35536,-0.0827 z m 1.25277,0.62053 c 0.54058,-0.0151 1.19645,0.2632 1.52487,0.7575 0.39594,0.59594 -0.54619,0.16487 -1.05769,0.31059 -0.5115,0.14571 -0.59234,0.86843 -1.09031,0.30156 -0.24242,-0.27596 -0.27469,-0.34584 -0.2631,-0.56401 0.008,-0.13692 0.0674,-0.33725 0.13357,-0.44505 0.14555,-0.23688 0.4283,-0.35152 0.75266,-0.36059 z m -2.1713,0.57799 c 0.0164,2.2e-4 0.0318,9.5e-4 0.0463,0.004 0.26516,0.0377 0.53901,0.28764 0.61287,0.55904 0.1108,0.40713 -0.21789,1.10718 -0.74489,1.58583 -0.12306,0.11175 -0.27243,0.19423 -0.42618,0.24318 -0.25626,0.0815 -0.52474,0.0707 -0.70326,-0.05 -0.50568,-0.34201 -0.36515,-1.34719 0.26962,-1.92839 0.23865,-0.21852 0.69893,-0.41627 0.94555,-0.41307 z m 8.09373,7.20824 a 0.28027227,0.86167218 52.099782 0 0 -0.80981,0.39693 0.28027227,0.86167218 52.099782 0 0 -0.43456,0.72209 0.28027227,0.86167218 52.099782 0 0 0.89181,-0.37021 0.28027227,0.86167218 52.099782 0 0 0.43457,-0.72179 0.28027227,0.86167218 52.099782 0 0 -0.082,-0.027 z m 1.16113,0.53607 a 0.37099284,1.3993311 56.819984 0 0 -1.35092,0.60624 0.37099284,1.3993311 56.819984 0 0 -0.80297,1.01654 0.37099284,1.3993311 56.819984 0 0 1.47672,-0.57644 0.37099284,1.3993311 56.819984 0 0 0.80297,-1.01652 0.37099284,1.3993311 56.819984 0 0 -0.1258,-0.0298 z m 0.85392,0.50624 a 0.41690594,1.528647 44.039465 0 0 -1.24872,0.84664 0.41690594,1.528647 44.039465 0 0 -0.7626,1.38861 0.41690594,1.528647 44.039465 0 0 1.36211,-0.80906 0.41690594,1.528647 44.039465 0 0 0.7629,-1.38861 0.41690594,1.528647 44.039465 0 0 -0.11369,-0.0375 z m 1.68361,0.29288 a 0.59949521,2.5124267 49.88104 0 0 -2.18839,1.29884 0.59949521,2.5124267 49.88104 0 0 -1.4264,2.02126 0.59949521,2.5124267 49.88104 0 0 2.37662,-1.25568 0.59949521,2.5124267 49.88104 0 0 1.4261,-2.02125 0.59949521,2.5124267 49.88104 0 0 -0.18793,-0.0431 z" />
    <path
       id="path881"
       style="display:inline;fill:#4d4d4d;fill-opacity:1;stroke-width:0.47632"
       d="m 87.749079,148.64315 c 0.150119,0.0616 6.208343,-1.80986 6.784404,-1.87484 0.696247,-0.0785 2.063428,-0.39819 3.134022,-0.733 0.436277,-0.13646 0.782414,-0.228 0.770284,-0.20318 -0.0125,0.0247 -0.299787,0.16667 -0.638284,0.31558 -0.819537,0.36055 -1.747741,0.87904 -1.727651,0.96501 0.0165,0.0707 1.120514,-0.24151 2.578345,-0.72909 0.397237,-0.13283 0.691687,-0.20801 0.709647,-0.18354 l 2.9e-4,1e-4 2e-4,3.9e-4 2e-4,4e-4 -10e-5,2.9e-4 1.9e-4,3.9e-4 1.9e-4,3.9e-4 c 0,0.003 -0.003,0.008 -0.007,0.0114 -0.059,0.0557 -0.1666,0.12426 -0.23878,0.15215 -0.15286,0.0591 -0.226267,0.2209 -0.1169,0.25758 0.0414,0.0139 0.23311,-0.04 0.42585,-0.11986 0.192737,-0.0798 0.803884,-0.31515 1.358184,-0.52287 1.58451,-0.59382 1.81658,-0.77639 2.01832,-1.58821 0.14293,-0.57511 0.0293,-0.99259 -0.38583,-1.4185 l -3.1e-4,-1e-4 c -0.4009,-0.41103 -0.92714,-0.56627 -1.5543,-0.45814 -0.58264,0.10042 -3.278205,0.86382 -3.303455,0.9353 -0.032,0.0922 0.398127,0.12048 0.923314,0.0605 0.26718,-0.0306 0.512677,-0.0465 0.545617,-0.0355 0.033,0.0111 -0.544387,0.2188 -1.282921,0.46166 -0.738537,0.24286 -1.618471,0.53411 -1.955541,0.64714 -0.337077,0.113 -0.770744,0.25763 -0.963714,0.32172 -0.367747,0.12206 -0.507487,0.20473 -0.470837,0.2784 0.0323,0.0648 1.261734,-0.0289 1.936641,-0.14736 0.887624,-0.15589 1.266021,-0.21644 1.293431,-0.20489 1.2e-4,7e-5 5.8e-4,1.7e-4 9.4e-4,3.3e-4 l 2.1e-4,3.8e-4 2e-4,3.9e-4 2.8e-4,1e-4 -1e-4,2.9e-4 2e-4,4.1e-4 -9e-5,2.9e-4 -1e-4,3e-4 c -0.004,0.005 -0.0229,0.0126 -0.0574,0.0237 -0.878004,0.28151 -1.256931,0.43125 -2.209878,0.87301 -0.597437,0.27695 -6.30557,2.22491 -6.595524,2.34653 -0.28995,0.12165 -1.01676,0.50143 -1.008895,0.53507 0.0025,0.0114 0.0153,0.0213 0.0368,0.03 z m 13.312121,-3.67832 c 0.1954,-0.5825 -0.88502,-1.14384 -0.32201,-1.61755 0.10567,-0.089 0.31347,-0.1763 0.46155,-0.19405 0.35086,-0.0421 0.54095,0.027 0.74669,0.27148 0.43732,0.51958 0.25827,1.29109 -0.35579,1.53334 -0.1885,0.0744 -0.58517,0.1699 -0.53045,0.006 z"
       sodipodi:nodetypes="csscscsccccccccsssssccscsssscssscccccccccsssccsssssss" />
    <path
       id="path2026"
       style="display:inline;fill:#4d4d4d;fill-opacity:1;stroke-width:0.47632"
       d="m 196.44351,115.72168 c 0.069,0.11218 0.13094,0.19655 0.17929,0.2379 0.0754,0.0648 0.11891,0.0981 0.16579,0.10443 0.0469,0.006 0.097,-0.0142 0.1857,-0.057 0.52861,-0.25537 1.38297,-1.4198 1.81033,-2.46745 0.43676,-1.07072 0.51705,-2.05468 0.28522,-3.49385 l -0.10097,-0.62749 -1.19569,-0.15655 c -1.40108,-0.18326 -1.27922,-0.23532 -1.6985,0.72538 -0.33416,0.76562 -0.56598,1.76207 -0.54883,2.35942 0.0168,0.58395 0.15776,1.48698 0.31429,2.01332 0.1301,0.43744 0.39681,1.02529 0.60339,1.36191 z m 0.23214,-2.01997 c -0.0905,-0.16088 -0.12506,-0.36635 -0.0914,-0.58533 0.0392,-0.2535 0.0899,-0.33632 0.29124,-0.47384 0.30252,-0.20665 0.58141,-0.181 0.79242,0.0729 0.33464,0.40262 0.14311,1.0756 -0.3518,1.23685 -0.12878,0.042 -0.21038,0.0565 -0.28473,0.0419 -0.0445,-0.009 -0.0866,-0.0279 -0.1344,-0.0581 -0.0921,-0.0575 -0.16689,-0.13791 -0.22126,-0.2344 z m -1.92632,-3.43501 c 0.0488,0.0731 0.10757,0.15233 0.17791,0.24209 0.2427,0.3108 0.38941,0.46021 0.47663,0.46699 0.0597,0.005 0.0916,-0.0574 0.10771,-0.18079 0.0214,-0.16351 0.24796,-0.71544 0.56777,-1.3834 0.0211,-0.0443 -0.12949,-0.19988 -0.33582,-0.34746 -0.20593,-0.14683 -0.46735,-0.37118 -0.58108,-0.4981 -0.25846,-0.28842 -0.374,-0.28726 -0.52467,0.005 -0.16345,0.31693 -0.20415,0.6538 -0.13315,1.0974 0.0349,0.21837 0.0973,0.37967 0.2447,0.59832 z m 2.08781,-1.5572 0.31589,0.091 c 0.1433,0.041 0.54302,0.0921 0.91474,0.12687 0.37172,0.0347 0.71566,0.0528 0.74773,0.028 0.0503,-0.0387 -0.079,-0.86631 -0.19242,-1.23197 -0.0624,-0.2012 -0.19508,-0.47928 -0.29496,-0.61787 -0.1,-0.13854 -0.22892,-0.258 -0.28633,-0.26555 -0.17036,-0.0223 -0.73199,0.52094 -0.93594,0.90524 -0.10415,0.19622 -0.20727,0.49362 -0.22907,0.66071 z m 2.69654,2.71948 c 0.004,0.005 0.007,0.009 0.0114,0.01 0.003,0.002 0.008,0.003 0.013,0.003 0.14608,0.0173 0.84882,-0.50651 1.04538,-0.78526 0.21038,-0.29837 0.33839,-1.01442 0.24361,-1.3624 -0.069,-0.25332 -0.11111,-0.25632 -0.4735,-0.0349 -0.16308,0.0997 -0.46917,0.23308 -0.68015,0.29638 -0.21097,0.0633 -0.38917,0.15802 -0.39605,0.21065 -0.007,0.0526 0.0187,0.23788 0.0569,0.41183 0.0382,0.17394 0.0812,0.52098 0.0955,0.77122 0.013,0.22675 0.0497,0.42881 0.085,0.4786 z m -1.39422,-6.43371 c 0.10504,0.17262 0.28367,0.30067 0.50408,0.31222 0.43258,0.0227 0.73348,-0.26794 0.70927,-0.68523 -0.0347,-0.59791 -0.79872,-0.83235 -1.18265,-0.3629 -0.17822,0.21793 -0.16557,0.51386 -0.0307,0.73591 z m 1.00058,-2.11037 c -0.11281,0.28342 0.3623,0.34737 0.65477,0.2971 0.32607,-0.0562 0.55307,-0.32409 0.5321,-0.62814 -0.0239,-0.34663 -0.19381,-0.5521 -0.516,-0.62379 -0.32279,-0.0719 -0.54364,0.0307 -0.72035,0.33444 -0.12865,0.22109 0.16458,0.33122 0.0494,0.62054 z m -0.91666,-1.7075 c 0.1637,0.25739 0.36272,0.34745 0.65515,0.29729 0.32606,-0.0562 0.55317,-0.32452 0.53219,-0.62857 -0.0239,-0.34664 -0.19365,-0.55184 -0.51583,-0.62354 -0.32278,-0.0719 -0.54433,0.0308 -0.72105,0.33452 -0.12865,0.22109 -0.11768,0.35779 0.0494,0.62053 z m 2.26175,3.30156 c 0.0105,0.0176 0.0219,0.0348 0.034,0.0516 0.0899,0.1215 0.23143,0.21683 0.4188,0.25862 0.38257,0.0851 0.68085,-0.095 0.7621,-0.46041 0.12987,-0.58395 -0.46976,-1.00478 -0.97449,-0.68377 -0.33152,0.21084 -0.39676,0.56986 -0.24063,0.83408 z m 0.95638,-2.09772 c 0.0787,0.11992 0.19745,0.2173 0.34722,0.26987 0.42013,0.1476 0.86311,-0.18565 0.83277,-0.62648 -0.0237,-0.34407 -0.19427,-0.54948 -0.51572,-0.62104 -0.3682,-0.082 -0.62049,0.0688 -0.73745,0.44068 -0.0592,0.18821 -0.0282,0.38254 0.073,0.53668 z"
       sodipodi:nodetypes="ccccscccssscccccssccccscccccsssssccsccccscccccsccscsscccssscssscsssccsssccccccsccscsssss" />
    <g
       id="g2052"
       transform="matrix(0.43277195,0,0,0.43277195,125.86297,153.18341)"
       style="font-variation-settings:normal;opacity:1;vector-effect:none;fill:#4d4d4d;fill-opacity:1;stroke-width:2.24254;stroke-linecap:butt;stroke-linejoin:miter;stroke-miterlimit:4;stroke-dasharray:none;stroke-dashoffset:0;stroke-opacity:1;stop-color:#000000;stop-opacity:1">
      <path
         d="m 16,9 c -3.9,0 -7,3.1 -7,7 0,3.9 3.1,7 7,7 3.9,0 7,-3.1 7,-7 0,-3.9 -3.1,-7 -7,-7 z"
         id="path2048"
         style="font-variation-settings:normal;vector-effect:none;fill:#4d4d4d;fill-opacity:1;stroke-width:2.24254;stroke-linecap:butt;stroke-linejoin:miter;stroke-miterlimit:4;stroke-dasharray:none;stroke-dashoffset:0;stroke-opacity:1;stop-color:#000000;stop-opacity:1" />
      <path
         d="M 27.7,8.3 C 27.9,7.9 28,7.5 28,7 28,5.3 26.7,4 25,4 24.5,4 24.1,4.1 23.7,4.3 21.4,2.8 18.8,2 16,2 8.3,2 2,8.3 2,16 2,23.7 8.3,30 16,30 23.7,30 30,23.7 30,16 30,13.2 29.2,10.6 27.7,8.3 Z M 16,28 C 9.4,28 4,22.6 4,16 4,9.4 9.4,4 16,4 18.2,4 20.4,4.6 22.3,5.8 22.1,6.1 22,6.6 22,7 c 0,1.7 1.3,3 3,3 0.4,0 0.9,-0.1 1.2,-0.3 1.2,1.9 1.8,4 1.8,6.3 0,6.6 -5.4,12 -12,12 z"
         id="path2050"
         style="font-variation-settings:normal;vector-effect:none;fill:#4d4d4d;fill-opacity:1;stroke-width:2.24254;stroke-linecap:butt;stroke-linejoin:miter;stroke-miterlimit:4;stroke-dasharray:none;stroke-dashoffset:0;stroke-opacity:1;stop-color:#000000;stop-opacity:1" />
    </g>
    <g
       id="g2671"
       transform="matrix(-0.43277195,0,0,-0.43277195,139.87405,71.229248)"
       style="font-variation-settings:normal;opacity:1;vector-effect:none;fill:#4d4d4d;fill-opacity:1;stroke-width:2.24254;stroke-linecap:butt;stroke-linejoin:miter;stroke-miterlimit:4;stroke-dasharray:none;stroke-dashoffset:0;stroke-opacity:1;stop-color:#000000;stop-opacity:1">
      <path
         d="m 16,9 c -3.9,0 -7,3.1 -7,7 0,3.9 3.1,7 7,7 3.9,0 7,-3.1 7,-7 0,-3.9 -3.1,-7 -7,-7 z"
         id="path2667"
         style="font-variation-settings:normal;vector-effect:none;fill:#4d4d4d;fill-opacity:1;stroke-width:2.24254;stroke-linecap:butt;stroke-linejoin:miter;stroke-miterlimit:4;stroke-dasharray:none;stroke-dashoffset:0;stroke-opacity:1;stop-color:#000000;stop-opacity:1" />
      <path
         d="M 27.7,8.3 C 27.9,7.9 28,7.5 28,7 28,5.3 26.7,4 25,4 24.5,4 24.1,4.1 23.7,4.3 21.4,2.8 18.8,2 16,2 8.3,2 2,8.3 2,16 2,23.7 8.3,30 16,30 23.7,30 30,23.7 30,16 30,13.2 29.2,10.6 27.7,8.3 Z M 16,28 C 9.4,28 4,22.6 4,16 4,9.4 9.4,4 16,4 18.2,4 20.4,4.6 22.3,5.8 22.1,6.1 22,6.6 22,7 c 0,1.7 1.3,3 3,3 0.4,0 0.9,-0.1 1.2,-0.3 1.2,1.9 1.8,4 1.8,6.3 0,6.6 -5.4,12 -12,12 z"
         id="path2669"
         style="font-variation-settings:normal;vector-effect:none;fill:#4d4d4d;fill-opacity:1;stroke-width:2.24254;stroke-linecap:butt;stroke-linejoin:miter;stroke-miterlimit:4;stroke-dasharray:none;stroke-dashoffset:0;stroke-opacity:1;stop-color:#000000;stop-opacity:1" />
    </g>
    <path
       id="path2694"
       style="display:inline;fill:#4d4d4d;fill-opacity:1;stroke-width:0.47632"
       d="m 178.53243,76.23996 c -0.15012,-0.0616 -6.20834,1.80986 -6.78441,1.87484 -0.69624,0.0785 -2.06343,0.39819 -3.13404,0.733 -0.43628,0.13646 -0.78242,0.228 -0.77028,0.20318 0.0125,-0.0247 0.29979,-0.16667 0.63828,-0.31558 0.81955,-0.36055 1.74776,-0.87904 1.72766,-0.96501 -0.0165,-0.0707 -1.12051,0.24151 -2.57835,0.72909 -0.39724,0.13283 -0.69169,0.20801 -0.70965,0.18354 l -2.9e-4,-1e-4 -2e-4,-3.9e-4 -2e-4,-4e-4 1e-4,-2.9e-4 -1.9e-4,-3.9e-4 -1.9e-4,-3.9e-4 c 0,-0.003 0.003,-0.008 0.007,-0.0114 0.059,-0.0557 0.1666,-0.12426 0.23878,-0.15215 0.15286,-0.0591 0.22626,-0.2209 0.1169,-0.25758 -0.0414,-0.0139 -0.23311,0.04 -0.42585,0.11986 -0.19274,0.0798 -0.8039,0.31515 -1.3582,0.52287 -1.58451,0.59382 -1.81658,0.77639 -2.01832,1.58821 -0.14293,0.57511 -0.0293,0.99259 0.38583,1.4185 l 3.1e-4,1e-4 c 0.4009,0.41103 0.92714,0.56627 1.5543,0.45814 0.58264,-0.10042 3.27823,-0.86382 3.30347,-0.9353 0.032,-0.0922 -0.39813,-0.12048 -0.92332,-0.0605 -0.26717,0.0306 -0.51267,0.0465 -0.54561,0.0355 -0.033,-0.0111 0.54439,-0.2188 1.28292,-0.46166 0.73855,-0.24286 1.61849,-0.53411 1.95555,-0.64714 0.33709,-0.113 0.77075,-0.25763 0.96372,-0.32172 0.36775,-0.12206 0.5075,-0.20473 0.47084,-0.2784 -0.0323,-0.0648 -1.26173,0.0289 -1.93664,0.14736 -0.88763,0.15589 -1.26604,0.21644 -1.29344,0.20489 -1.3e-4,-7e-5 -5.8e-4,-1.7e-4 -9.5e-4,-3.3e-4 l -2.1e-4,-3.8e-4 -1.9e-4,-3.9e-4 -2.9e-4,-10e-5 1e-4,-2.9e-4 -2e-4,-4.1e-4 1e-4,-2.9e-4 1e-4,-3e-4 c 0.004,-0.005 0.0229,-0.0126 0.0574,-0.0237 0.87801,-0.28151 1.25694,-0.43125 2.20989,-0.87301 0.59744,-0.27695 6.30557,-2.22491 6.59553,-2.34653 0.28995,-0.12165 1.01676,-0.50143 1.00889,-0.53507 -0.002,-0.0114 -0.0153,-0.0213 -0.0368,-0.03 z m -13.31216,3.67832 c -0.1954,0.5825 0.88502,1.14384 0.32201,1.61755 -0.10567,0.089 -0.31347,0.1763 -0.46155,0.19405 -0.35086,0.0421 -0.54095,-0.027 -0.74669,-0.27148 -0.43732,-0.51958 -0.25827,-1.29109 0.35579,-1.53334 0.1885,-0.0744 0.58517,-0.1699 0.53045,-0.006 z"
       sodipodi:nodetypes="csscscsccccccccsssssccscsssscssscccccccccsssccsssssss" />
  </g>
</svg>
